<svg width="1280" height="360" viewBox="0 0 1280 360" fill="none" xmlns="http://www.w3.org/2000/svg" role="img" aria-label="MHA Widget Hub logo">
  <defs>
    <linearGradient id="bg" x1="88" y1="72" x2="300" y2="302" gradientUnits="userSpaceOnUse">
      <stop offset="0" stop-color="#F5FAFF"/>
      <stop offset="0.52" stop-color="#CCE2FF"/>
      <stop offset="1" stop-color="#97B9FF"/>
    </linearGradient>
    <radialGradient id="blobA" cx="0" cy="0" r="1" gradientUnits="userSpaceOnUse" gradientTransform="translate(118 94) rotate(47) scale(118 108)">
      <stop stop-color="#5BBAFF" stop-opacity=".38"/>
      <stop offset="1" stop-color="#5BBAFF" stop-opacity="0"/>
    </radialGradient>
    <radialGradient id="blobB" cx="0" cy="0" r="1" gradientUnits="userSpaceOnUse" gradientTransform="translate(258 254) rotate(47) scale(128 112)">
      <stop stop-color="#9770FF" stop-opacity=".42"/>
      <stop offset="1" stop-color="#9770FF" stop-opacity="0"/>
    </radialGradient>
    <linearGradient id="phone" x1="138" y1="80" x2="258" y2="276" gradientUnits="userSpaceOnUse">
      <stop stop-color="white" stop-opacity=".92"/>
      <stop offset="1" stop-color="white" stop-opacity=".62"/>
    </linearGradient>
    <linearGradient id="tile" x1="150" y1="112" x2="252" y2="240" gradientUnits="userSpaceOnUse">
      <stop stop-color="white" stop-opacity=".9"/>
      <stop offset="1" stop-color="white" stop-opacity=".56"/>
    </linearGradient>
    <linearGradient id="titleGradient" x1="380" y1="90" x2="900" y2="180" gradientUnits="userSpaceOnUse">
      <stop offset="0" stop-color="#101828"/>
      <stop offset="1" stop-color="#344054"/>
    </linearGradient>
    <filter id="iconShadow" x="38" y="24" width="316" height="318" filterUnits="userSpaceOnUse" color-interpolation-filters="sRGB">
      <feDropShadow dx="0" dy="18" stdDeviation="18" flood-color="#1C2A44" flood-opacity=".16"/>
    </filter>
    <filter id="phoneShadow" x="110" y="62" width="194" height="240" filterUnits="userSpaceOnUse" color-interpolation-filters="sRGB">
      <feDropShadow dx="0" dy="8" stdDeviation="8" flood-color="#1C2A44" flood-opacity=".22"/>
    </filter>
    <clipPath id="iosClip">
      <rect x="68" y="55" width="250" height="250" rx="56"/>
    </clipPath>
  </defs>
  <g filter="url(#iconShadow)" clip-path="url(#iosClip)">
    <rect x="68" y="55" width="250" height="250" rx="56" fill="url(#bg)"/>
    <rect x="68" y="55" width="250" height="250" rx="56" fill="url(#blobA)"/>
    <rect x="68" y="55" width="250" height="250" rx="56" fill="url(#blobB)"/>
    <rect x="78" y="65" width="230" height="230" rx="51" stroke="white" stroke-opacity=".38" stroke-width="1.2"/>
    <g filter="url(#phoneShadow)">
      <rect x="128" y="84" width="130" height="188" rx="27" fill="url(#phone)" stroke="white" stroke-opacity=".82" stroke-width=".9"/>
      <rect x="135" y="93" width="116" height="170" rx="22" fill="white" fill-opacity=".15" stroke="white" stroke-opacity=".28" stroke-width=".7"/>
      <rect x="173" y="94" width="40" height="8" rx="4" fill="#3A4868" fill-opacity=".78"/>
      <rect x="146" y="114" width="94" height="38" rx="12" fill="url(#tile)" stroke="white" stroke-opacity=".82" stroke-width=".8"/>
      <circle cx="163" cy="131" r="8" fill="#4BB2FF"/>
      <rect x="178" y="124" width="48" height="6" rx="3" fill="#5D83FF" fill-opacity=".84"/>
      <rect x="178" y="136" width="36" height="5" rx="2.5" fill="#8B72FF" fill-opacity=".66"/>
      <rect x="146" y="161" width="41" height="41" rx="12" fill="url(#tile)" stroke="white" stroke-opacity=".82" stroke-width=".8"/>
      <rect x="199" y="161" width="41" height="41" rx="12" fill="url(#tile)" stroke="white" stroke-opacity=".82" stroke-width=".8"/>
      <rect x="146" y="211" width="94" height="30" rx="12" fill="url(#tile)" stroke="white" stroke-opacity=".82" stroke-width=".8"/>
      <rect x="155" y="179" width="24" height="6" rx="3" fill="#50C896" fill-opacity=".88"/>
      <circle cx="220" cy="181" r="7" fill="#FFA649" fill-opacity=".88"/>
      <rect x="159" y="223" width="68" height="6" rx="3" fill="#6389FF" fill-opacity=".83"/>
      <rect x="177" y="254" width="32" height="3" rx="1.5" fill="#444F69" fill-opacity=".36"/>
    </g>
  </g>
  <text x="380" y="158" fill="url(#titleGradient)" font-family="Inter, ui-sans-serif, system-ui, -apple-system, BlinkMacSystemFont, Segoe UI, sans-serif" font-size="72" font-weight="850" letter-spacing="-2.4">MHA Widget Hub</text>
  <text x="384" y="218" fill="#667085" font-family="Inter, ui-sans-serif, system-ui, -apple-system, BlinkMacSystemFont, Segoe UI, sans-serif" font-size="32" font-weight="650" letter-spacing="-0.3">The family-first Home Assistant launcher.</text>
</svg>
