<svg width="1024" height="1024" viewBox="0 0 1024 1024" fill="none" xmlns="http://www.w3.org/2000/svg" role="img" aria-label="MHA Widget Hub icon">
  <defs>
    <linearGradient id="bg" x1="84" y1="62" x2="924" y2="944" gradientUnits="userSpaceOnUse">
      <stop offset="0" stop-color="#F5FAFF"/>
      <stop offset="0.52" stop-color="#CCE2FF"/>
      <stop offset="1" stop-color="#97B9FF"/>
    </linearGradient>
    <radialGradient id="blobA" cx="0" cy="0" r="1" gradientUnits="userSpaceOnUse" gradientTransform="translate(186 150) rotate(47) scale(470 430)">
      <stop stop-color="#5BBAFF" stop-opacity=".38"/>
      <stop offset="1" stop-color="#5BBAFF" stop-opacity="0"/>
    </radialGradient>
    <radialGradient id="blobB" cx="0" cy="0" r="1" gradientUnits="userSpaceOnUse" gradientTransform="translate(750 790) rotate(47) scale(490 430)">
      <stop stop-color="#9770FF" stop-opacity=".42"/>
      <stop offset="1" stop-color="#9770FF" stop-opacity="0"/>
    </radialGradient>
    <linearGradient id="phone" x1="272" y1="130" x2="750" y2="872" gradientUnits="userSpaceOnUse">
      <stop stop-color="white" stop-opacity=".92"/>
      <stop offset="1" stop-color="white" stop-opacity=".62"/>
    </linearGradient>
    <linearGradient id="tile" x1="318" y1="238" x2="706" y2="760" gradientUnits="userSpaceOnUse">
      <stop stop-color="white" stop-opacity=".9"/>
      <stop offset="1" stop-color="white" stop-opacity=".56"/>
    </linearGradient>
    <filter id="phoneShadow" x="188" y="82" width="648" height="872" filterUnits="userSpaceOnUse" color-interpolation-filters="sRGB">
      <feDropShadow dx="0" dy="28" stdDeviation="28" flood-color="#1C2A44" flood-opacity=".24"/>
    </filter>
    <clipPath id="iosClip">
      <rect width="1024" height="1024" rx="230"/>
    </clipPath>
  </defs>
  <g clip-path="url(#iosClip)">
    <rect width="1024" height="1024" rx="230" fill="url(#bg)"/>
    <rect width="1024" height="1024" rx="230" fill="url(#blobA)"/>
    <rect width="1024" height="1024" rx="230" fill="url(#blobB)"/>
    <rect x="42" y="42" width="940" height="940" rx="210" stroke="white" stroke-opacity=".38" stroke-width="4"/>
    <g filter="url(#phoneShadow)">
      <rect x="244" y="118" width="536" height="770" rx="112" fill="url(#phone)" stroke="white" stroke-opacity=".82" stroke-width="3"/>
      <rect x="272" y="154" width="480" height="698" rx="88" fill="white" fill-opacity=".15" stroke="white" stroke-opacity=".28" stroke-width="2"/>
      <rect x="430" y="156" width="164" height="32" rx="16" fill="#3A4868" fill-opacity=".78"/>
      <rect x="318" y="238" width="388" height="154" rx="48" fill="url(#tile)" stroke="white" stroke-opacity=".82" stroke-width="3"/>
      <circle cx="386" cy="308" r="32" fill="#4BB2FF"/>
      <rect x="448" y="278" width="202" height="26" rx="13" fill="#5D83FF" fill-opacity=".84"/>
      <rect x="448" y="322" width="150" height="22" rx="11" fill="#8B72FF" fill-opacity=".66"/>
      <rect x="318" y="430" width="170" height="170" rx="48" fill="url(#tile)" stroke="white" stroke-opacity=".82" stroke-width="3"/>
      <rect x="536" y="430" width="170" height="170" rx="48" fill="url(#tile)" stroke="white" stroke-opacity=".82" stroke-width="3"/>
      <rect x="318" y="638" width="388" height="122" rx="50" fill="url(#tile)" stroke="white" stroke-opacity=".82" stroke-width="3"/>
      <rect x="354" y="505" width="98" height="23" rx="11.5" fill="#50C896" fill-opacity=".88"/>
      <circle cx="621" cy="511" r="27" fill="#FFA649" fill-opacity=".88"/>
      <rect x="372" y="686" width="280" height="26" rx="13" fill="#6389FF" fill-opacity=".83"/>
      <rect x="446" y="812" width="132" height="12" rx="6" fill="#444F69" fill-opacity=".36"/>
    </g>
  </g>
</svg>
