<?xml version="1.0" encoding="UTF-8" standalone="no"?>
<!-- Created with Inkscape (http://www.inkscape.org/) -->

<svg
   width="1920"
   height="1200"
   viewBox="0 0 508 317.5"
   version="1.1"
   id="svg1"
   xml:space="preserve"
   inkscape:export-filename="image.svg"
   inkscape:export-xdpi="96"
   inkscape:export-ydpi="96"
   inkscape:version="1.4.4 (dcaf3e7, 2026-05-05)"
   sodipodi:docname="dessin.svg"
   xmlns:inkscape="http://www.inkscape.org/namespaces/inkscape"
   xmlns:sodipodi="http://sodipodi.sourceforge.net/DTD/sodipodi-0.dtd"
   xmlns="http://www.w3.org/2000/svg"
   xmlns:svg="http://www.w3.org/2000/svg"><sodipodi:namedview
     id="namedview1"
     pagecolor="#ffffff"
     bordercolor="#000000"
     borderopacity="0.25"
     inkscape:showpageshadow="false"
     inkscape:pageopacity="0.0"
     inkscape:pagecheckerboard="0"
     inkscape:deskcolor="#d1d1d1"
     inkscape:document-units="mm"
     showgrid="false"
     showborder="false"
     borderlayer="false"
     showguides="true"
     inkscape:zoom="0.28836204"
     inkscape:cx="1227.6234"
     inkscape:cy="740.3887"
     inkscape:window-width="1637"
     inkscape:window-height="1024"
     inkscape:window-x="0"
     inkscape:window-y="0"
     inkscape:window-maximized="0"
     inkscape:current-layer="layer1" /><defs
     id="defs1"><inkscape:path-effect
       effect="bspline"
       id="path-effect13"
       is_visible="true"
       lpeversion="1.3"
       weight="33.333333"
       steps="2"
       helper_size="0"
       apply_no_weight="true"
       apply_with_weight="true"
       only_selected="false"
       uniform="false" /><inkscape:path-effect
       effect="bspline"
       id="path-effect12"
       is_visible="true"
       lpeversion="1.3"
       weight="33.333333"
       steps="2"
       helper_size="0"
       apply_no_weight="true"
       apply_with_weight="true"
       only_selected="false"
       uniform="false" /><inkscape:path-effect
       effect="bspline"
       id="path-effect11"
       is_visible="true"
       lpeversion="1.3"
       weight="33.333333"
       steps="2"
       helper_size="0"
       apply_no_weight="true"
       apply_with_weight="true"
       only_selected="false"
       uniform="false" /><inkscape:path-effect
       effect="bspline"
       id="path-effect10"
       is_visible="true"
       lpeversion="1.3"
       weight="33.333333"
       steps="2"
       helper_size="0"
       apply_no_weight="true"
       apply_with_weight="true"
       only_selected="false"
       uniform="false" /><inkscape:path-effect
       effect="bspline"
       id="path-effect9"
       is_visible="true"
       lpeversion="1.3"
       weight="33.333333"
       steps="2"
       helper_size="0"
       apply_no_weight="true"
       apply_with_weight="true"
       only_selected="false"
       uniform="false" /><inkscape:path-effect
       effect="bspline"
       id="path-effect8"
       is_visible="true"
       lpeversion="1.3"
       weight="33.333333"
       steps="2"
       helper_size="0"
       apply_no_weight="true"
       apply_with_weight="true"
       only_selected="false"
       uniform="false" /><inkscape:path-effect
       effect="bspline"
       id="path-effect7"
       is_visible="true"
       lpeversion="1.3"
       weight="33.333333"
       steps="2"
       helper_size="0"
       apply_no_weight="true"
       apply_with_weight="true"
       only_selected="false"
       uniform="false" /></defs><g
     inkscape:label="Calque 1"
     inkscape:groupmode="layer"
     id="layer1"
     style="display:inline"><path
       class="sheet-1"
       style="opacity:1;stroke-width:0.264583;paint-order:stroke fill markers"
       d="m 519.32689,241.31267 c -17.73907,-2.75261 -35.47817,-5.50523 -59.33447,-5.04643 -23.8563,0.45881 -53.82862,4.12889 -76.00262,6.88153 -22.174,2.75263 -36.5485,4.58767 -50.61756,3.97595 -14.06906,-0.61172 -27.83186,-3.67012 -39.45411,-8.56373 -11.62224,-4.8936 -21.1033,-11.62209 -31.80803,-18.5037 -10.70474,-6.88161 -22.63251,-13.91594 -33.64307,-20.64462 -11.01056,-6.72868 -21.10329,-13.15132 -26.76145,-19.2683 -5.65817,-6.11698 -6.88153,-11.92795 -7.64615,-17.73908 -0.76462,-5.81114 -1.07046,-11.6221 -1.83509,-16.66861 -0.76463,-5.0465 -1.98799,-9.32826 -6.26991,-15.29234 -4.28192,-5.96408 -11.62208,-13.61008 -19.57417,-22.63265 -7.95209,-9.02257 -16.51561,-19.421133 -22.7855,-27.984893 -6.26988,-8.56376 -10.2458,-15.29224 -11.46918,-25.232375 -1.22337,-9.940136 0.30584,-23.09126 4.43483,-35.172296 4.12899,-12.0810363 10.85747,-23.0912793 14.68056,-29.0552919 3.82309,-5.9640131 4.74061,-6.8815331 65.60521,-7.3403011 60.86461,-0.458768 181.67145,-0.458768 242.68778,0.611713 61.01634,1.07048 62.2397,3.211369 62.39262,46.183601 0.15291,42.972232 -0.76461,126.772423 -1.68215,210.574293"
       id="path7"
       inkscape:path-effect="#path-effect7"
       inkscape:original-d="m 519.32689,241.31267 c -17.73907,-2.75261 -35.47817,-5.50523 -53.21724,-8.25785 -29.97353,3.67023 -59.94585,7.34032 -89.9188,11.01047 -14.37505,1.83511 -28.74955,3.67015 -43.12431,5.50523 -13.76336,-3.05852 -27.52616,-6.11692 -41.28923,-9.17538 -9.48142,-6.72876 -18.96248,-13.45724 -28.44371,-20.18586 -11.92824,-7.0346 -23.85601,-14.06892 -35.78401,-21.10339 -10.09313,-6.42289 -20.18585,-12.84554 -30.27877,-19.26831 -1.22341,-5.81119 -2.44677,-11.62216 -3.67016,-17.43323 -0.30585,-5.8112 -0.61169,-11.62216 -0.91754,-17.43324 -1.22341,-4.28193 -2.44677,-8.56369 -3.67015,-12.84554 -7.34046,-7.64631 -14.68062,-15.29231 -22.02093,-22.93847 -8.56387,-10.398976 -17.12739,-20.797541 -25.69108,-31.196311 -3.97608,-6.728754 -7.952,-13.457235 -11.92801,-20.185853 1.52927,-13.151649 3.05847,-26.302774 4.5877,-39.454163 6.72875,-11.0106837 13.45723,-22.0209277 20.18585,-33.031392 0.91756,-0.917557 1.83508,-1.835077 2.75261,-2.752616 120.81168,0 241.61852,0 362.42778,0 1.2234,2.140966 2.44678,4.281847 3.67016,6.422771 -0.91757,83.803543 -1.83507,167.603734 -2.75262,251.405604" /></g><g
     inkscape:groupmode="layer"
     id="layer10"
     inkscape:label="Calque 2"
     style="display:inline"><path
       class="sheet-2"
       style="opacity:1;stroke-width:0.264583;paint-order:stroke fill markers"
       d="m -10.092925,60.557552 c 11.6221572,7.34031 23.244313,14.68062 40.371928,19.268332 17.127615,4.587711 39.759782,6.422752 56.428509,8.257848 16.668728,1.835096 27.373128,3.670136 37.007368,10.093018 9.63425,6.42288 18.19777,17.43312 24.00888,25.38518 5.81111,7.95205 8.86951,12.84549 20.33894,16.36274 11.46943,3.51726 31.34904,5.65814 48.47657,7.3403 17.12753,1.68217 31.50202,2.90553 46.7945,8.41086 15.29248,5.50533 31.50199,15.29221 44.34763,22.78549 12.84564,7.49329 22.32667,12.69257 40.67772,13.1513 18.35105,0.45872 45.57082,-3.82304 63.00413,-8.25785 17.4333,-4.43482 25.07931,-9.02242 32.87847,-13.15138 7.79916,-4.12896 15.751,-7.79904 28.59672,-9.63412 12.84572,-1.83508 30.58445,-1.83508 40.0657,-1.22337 9.48125,0.6117 10.7046,1.83506 11.31629,1.68212 0.61169,-0.15294 0.61169,-1.68214 0.45876,-31.50273 -0.15292,-29.820581 -0.45876,-87.930203 -1.68217,-117.444372 -1.2234,-29.514169 -3.36428,-30.431689 -92.06144,-29.819976 -88.69715,0.611712 -263.94354,2.752593 -352.333115,4.128907 -88.3895749,1.376314 -89.918776,1.987994 -90.071687,13.76330371 -0.15291,11.77530929 1.07045,34.71331829 2.2938351,57.65178329"
       id="path8"
       inkscape:path-effect="#path-effect8"
       inkscape:original-d="m -10.092925,60.557552 c 11.6221561,7.340312 23.244313,14.68062 34.866469,22.020929 22.633074,1.835113 45.265241,3.670155 67.897863,5.505233 10.704833,1.835113 21.409233,3.670155 32.113853,5.505231 8.56387,11.010685 17.12739,22.020925 25.69108,33.031395 3.05853,4.89364 6.11693,9.78708 9.17539,14.68062 19.8804,2.14096 39.76001,4.28184 59.64001,6.42277 14.37506,1.22341 28.74955,2.44677 43.12432,3.67015 16.21019,9.78728 32.4197,19.57416 48.62956,29.36124 9.48142,5.19949 18.96245,10.39877 28.44368,15.59816 27.22087,-4.28194 54.44064,-8.5637 81.66095,-12.84555 7.6463,-4.58778 15.29231,-9.17538 22.93848,-13.76307 7.95215,-3.67023 15.90399,-7.34031 23.85599,-11.01047 17.73944,0 35.47817,0 53.21726,0 1.22341,1.22341 2.44676,2.44677 3.67014,3.67016 0,-1.52927 0,-3.05847 0,-4.5877 -0.30585,-58.111941 -0.61169,-116.221563 -0.91754,-174.332346 -2.14096,-0.917557 -4.28184,-1.835077 -6.42277,-2.752616 -175.25338,2.140966 -350.49977,4.281847 -525.7496581,6.42277 -1.5292618,0.611705 -3.0584629,1.223385 -4.5876939,1.835078 1.22341,22.938926 2.44677,45.876935 3.6701551,68.8154" /></g><g
     inkscape:groupmode="layer"
     id="layer11"
     inkscape:label="Calque 3"><path
       class="sheet-3"
       style="opacity:1;stroke-width:0.264583;paint-order:stroke fill markers"
       d="m 190.84805,-14.680619 c 4.89354,16.2098482 9.78707,32.419699 26.30305,42.206812 16.51598,9.787114 44.65327,13.151356 64.68632,16.056921 20.03306,2.905565 31.96082,5.352285 40.37164,14.680754 8.41081,9.328469 13.30425,25.537998 20.18588,35.630964 6.88162,10.092968 15.75098,14.068888 29.82011,17.127368 14.06912,3.05849 33.33703,5.19936 53.98188,3.97594 20.64484,-1.22343 42.66534,-5.81104 57.95773,-11.1634 15.29239,-5.352372 23.85592,-11.469179 29.05532,-14.680568 5.19941,-3.211389 7.03445,-3.517229 7.79906,-20.644957 0.76461,-17.127728 0.45878,-51.07598 -0.30585,-68.20337361 C 519.93855,-16.821552 518.7152,-17.127389 463.50886,-17.127386 c -55.20633,3e-6 -164.39124,0.305844 -273.57835,0.61169"
       id="path9"
       inkscape:path-effect="#path-effect9"
       inkscape:original-d="m 190.84805,-14.680619 c 4.89353,16.2098501 9.78707,32.4197 14.68061,48.629549 28.13842,3.364376 56.27571,6.728619 84.41355,10.092926 11.92827,2.446819 23.85603,4.89354 35.78403,7.340311 4.89362,16.210174 9.78707,32.4197 14.68061,48.629553 8.86971,3.97608 17.73907,7.952 26.60862,11.928 19.2687,2.14097 38.53661,4.28185 57.80495,6.42277 22.02135,-4.58778 44.04185,-9.17539 66.06278,-13.76308 8.56385,-6.117047 17.12738,-12.233848 25.69107,-18.350774 1.83512,-0.305853 3.67016,-0.611693 5.50523,-0.917538 -0.30585,-33.949611 -0.61169,-67.897863 -0.91752,-101.846794 -1.22343,-0.305853 -2.44678,-0.611693 -3.67017,-0.917539 -109.18928,0.305852 -218.37419,0.611693 -327.5613,0.917539" /></g><g
     inkscape:groupmode="layer"
     id="layer12"
     inkscape:label="Calque 4"
     style="display:inline"><path
       class="sheet-4"
       style="opacity:1;stroke-width:0.264583;paint-order:stroke fill markers"
       d="m 97.259099,329.39638 c 5.199391,-22.02093 10.398771,-44.04186 28.138161,-60.55766 17.73938,-16.5158 48.01755,-27.52605 67.5918,-32.72543 19.57425,-5.19937 28.44361,-4.58769 55.51145,4.12909 27.06784,8.71678 72.33218,25.53799 97.10576,37.46606 24.77359,11.92807 29.05535,18.9624 31.65505,26.76156 2.59971,7.79916 3.51723,16.36269 3.36429,20.79746 -0.15293,4.43478 -1.37628,4.74062 -49.39508,5.1994 -48.01881,0.45877 -142.82925,1.07045 -237.641585,1.68214"
       id="path10"
       inkscape:path-effect="#path-effect10"
       inkscape:original-d="m 97.259099,329.39638 c 5.199391,-22.02093 10.398771,-44.04186 15.598161,-66.06278 30.27938,-11.01068 60.55755,-22.02093 90.83633,-33.03139 8.86972,0.6117 17.73908,1.22338 26.60862,1.83508 45.26614,16.82188 90.53048,33.64307 135.79571,50.46461 4.28194,7.03461 8.56372,14.06893 12.84555,21.10341 0.91757,8.56385 1.8351,17.12738 2.75262,25.69107 -1.22341,0.30586 -2.44676,0.61169 -3.67014,0.91755 -94.81423,0.61171 -189.62467,1.22338 -284.437005,1.83507"
       transform="translate(-25.691083)" /></g><g
     inkscape:groupmode="layer"
     id="layer13"
     inkscape:label="Calque 5"><path
       class="sheet-5"
       style="opacity:1;stroke-width:0.264583;paint-order:stroke fill markers"
       d="m 112.85726,329.39638 c 2.75261,-8.25783 5.50523,-16.51569 12.69273,-27.52629 7.1875,-11.0106 18.80943,-24.7734 35.47826,-36.85444 16.66884,-12.08103 38.38349,-22.47959 57.8049,-28.74946 19.4214,-6.26987 36.54845,-8.41075 51.38212,-8.10488 14.83366,0.30587 27.37311,3.05844 40.37171,8.2579 12.99859,5.19946 26.45556,12.84546 38.5366,20.18584 12.08104,7.34038 22.78544,14.3747 30.89042,23.55021 8.10498,9.1755 13.61009,20.49157 16.36271,29.36118 2.75261,8.86962 2.75261,15.29225 2.75261,19.26826 0,3.97601 0,5.50522 -48.01881,6.11691 -48.01882,0.6117 -144.05262,0.30586 -240.08833,10e-6"
       id="path11"
       inkscape:path-effect="#path-effect11"
       inkscape:original-d="m 112.85726,329.39638 c 2.75261,-8.25783 5.50523,-16.51569 8.25785,-24.77355 11.62239,-13.76333 23.24431,-27.52614 34.86647,-41.28923 21.71551,-10.39898 43.43016,-20.79754 65.14524,-31.19631 17.12773,-2.14097 34.25478,-4.28185 51.38216,-6.42278 12.53995,2.75268 25.0794,5.50524 37.61909,8.25785 13.4575,7.64631 26.91447,15.29231 40.37171,22.93847 10.70483,7.03461 21.40924,14.06893 32.11386,21.10338 5.50534,11.31655 11.01045,22.63262 16.51568,33.94893 0,6.42292 0,12.84555 0,19.26833 0,1.52924 0,3.05845 0,4.58769 -96.03763,-0.30585 -192.07143,-0.61169 -288.10714,-0.91754"
       transform="translate(-0.91753869,-3.6701548)" /></g><g
     inkscape:groupmode="layer"
     id="layer15"
     inkscape:label="Calque 6"
     style="display:inline"><path
       class="sheet-6"
       style="opacity:1;stroke-width:0.264583;paint-order:stroke fill markers"
       d="m -13.76308,268.83884 c 7.3403093,-1.83508 14.68062105,-3.67016 23.5502654,-7.64622 8.8696446,-3.97607 19.2682066,-10.09287 25.8439286,-14.06889 6.575723,-3.97602 9.328281,-5.81106 11.316293,-11.01053 1.988012,-5.19947 3.211373,-13.76299 3.058435,-20.64458 -0.152938,-6.8816 -1.682139,-12.08088 0.305917,-16.82154 1.988057,-4.74066 7.493177,-9.02242 13.610168,-14.22187 6.11699,-5.19944 12.845477,-11.31625 11.163222,-22.93857 C 73.402893,149.86431 63.310169,132.73726 51.534955,121.26797 39.759742,109.79868 26.302776,103.98772 15.598078,99.705843 4.8933806,95.423968 -3.0584623,92.671407 -7.6461682,91.600951 c -4.5877058,-1.070455 -5.8110658,-0.458775 -5.9639798,28.903039 -0.152914,29.36182 0.764606,87.47144 1.682145,145.58223"
       id="path12"
       inkscape:path-effect="#path-effect12"
       inkscape:original-d="m -13.76308,268.83884 c 7.3403093,-1.83508 14.68061869,-3.67017 22.0209281,-5.50524 10.3989799,-6.11705 20.7975419,-12.23385 31.1963149,-18.35077 2.752673,-1.83512 5.505233,-3.67016 8.257847,-5.50524 1.22341,-8.56386 2.446772,-17.12738 3.670157,-25.69108 -1.529262,-5.19949 -3.058464,-10.39877 -4.587695,-15.59815 5.505342,-4.28194 11.010464,-8.5637 16.515697,-12.84555 6.728751,-6.11704 13.457234,-12.23385 20.18585,-18.35077 C 73.402893,149.86431 63.310169,132.73726 53.217243,115.60987 39.759741,109.79868 26.302775,103.98772 12.845542,98.17664 4.8933806,95.423968 -3.0584624,92.671407 -11.010464,89.91879 c -1.22341,0.611706 -2.44677,1.223386 -3.670155,1.835079 0.917557,58.111941 1.835077,116.221561 2.752616,174.332351" /></g><g
     inkscape:groupmode="layer"
     id="layer16"
     inkscape:label="Calque 7"><path
       class="sheet-7"
       style="opacity:1;stroke-width:0.264583;paint-order:stroke fill markers"
       d="m -11.010464,255.99329 c 7.3403109,-5.81108 14.6806219,-11.62216 25.997085,-18.045 11.316462,-6.42283 26.608467,-13.45716 36.548515,-20.79754 9.940047,-7.34039 14.527651,-14.9864 15.751013,-25.84408 1.223362,-10.85768 -0.917518,-24.92632 -8.257954,-36.39564 C 51.68776,143.4417 39.148316,134.57234 26.45557,127.9966 13.762824,121.42087 0.91753669,117.13911 -5.9640117,114.99818 c -6.8815483,-2.14092 -7.7990683,-2.14092 -7.7990593,21.56264 9e-6,23.70355 0.917529,71.10877 1.835068,118.51493"
       id="path13"
       inkscape:path-effect="#path-effect13"
       inkscape:original-d="m -11.010464,255.99329 c 7.3403093,-5.81108 14.6806187,-11.62216 22.020928,-17.43323 15.292617,-7.03461 30.584623,-14.06893 45.876934,-21.10339 4.587785,-7.64631 9.175387,-15.29232 13.763079,-22.93847 C 68.509511,180.44899 66.36863,166.38035 64.227707,152.31142 51.687761,143.4417 39.148316,134.57234 26.608622,125.7028 13.762823,121.42087 0.91753869,117.1391 -11.928003,112.85726 c -0.917557,0 -1.835077,0 -2.752616,0 0.917557,47.40711 1.835077,94.81233 2.752616,142.21849" /></g></svg>
